<svg width="353" height="64" viewBox="0 0 353 64" fill="none" xmlns="http://www.w3.org/2000/svg">
<path fill-rule="evenodd" clip-rule="evenodd" d="M344.589 3.06523C342.274 1.01665 339.434 0.000127732 336.424 0C333.716 4.50605e-05 331.276 0.89544 329.229 2.37031L328.824 2.67238C325.653 5.13872 324.609 8.69631 324.609 11.8747C324.609 12.5537 324.641 13.2294 324.699 13.9016C322.425 14.1988 320.234 14.8878 318.158 15.9435C317.367 16.3349 316.617 16.7771 315.908 17.2673C314.946 16.5229 313.903 15.8865 312.787 15.3657L312.788 15.3624C312.758 15.3478 312.726 15.3357 312.696 15.3212C312.676 15.312 312.657 15.3006 312.637 15.2915L312.635 15.2931C310.583 14.322 308.345 13.7334 305.975 13.7333C303.911 13.7333 301.877 14.0039 299.89 14.5437V14.5404C299.882 14.5426 299.873 14.5452 299.865 14.5478L299.851 14.5522C299.838 14.5562 299.825 14.5602 299.813 14.5635L299.765 14.5767C299.72 14.5886 299.676 14.6019 299.631 14.6152C299.598 14.6252 299.565 14.6351 299.532 14.6444C297.784 13.6903 295.892 13.2059 293.963 13.1456L293.549 13.139C290.863 13.139 287.819 13.8682 285.378 16.1927L285.38 16.1944C284.771 16.7732 284.24 17.397 283.778 18.053C283.074 17.522 282.33 17.0329 281.55 16.5872L281.548 16.5905C277.991 14.518 273.851 13.735 269.575 13.7349C267.86 13.7349 266.138 13.9344 264.425 14.2978L264.405 14.3027L264.384 14.3077C262.525 14.7143 260.745 15.3621 259.069 16.2604C258.628 16.4961 258.2 16.752 257.784 17.0263C257.689 16.9343 257.594 16.8421 257.495 16.7523L257.494 16.7556C255.45 14.8532 252.93 13.864 250.269 13.7465L249.726 13.7349C247.289 13.735 244.541 14.41 242.325 16.4073C240.75 15.7268 239.082 15.4599 237.538 15.4598C236.008 15.4599 234.383 15.7275 232.85 16.3842C230.685 14.4346 227.972 13.6756 225.409 13.6755C222.642 13.6756 220.074 14.6123 217.983 16.3924C217.384 16.0141 216.763 15.6684 216.114 15.3657L216.116 15.3624L216.106 15.358C216.079 15.3453 216.051 15.3342 216.023 15.3212C216.014 15.3167 216.004 15.3117 215.994 15.3067C215.984 15.3014 215.974 15.2961 215.964 15.2915L215.962 15.2931C213.911 14.322 211.673 13.7333 209.302 13.7333C207.238 13.7333 205.204 14.0038 203.218 14.5437V14.5404C203.214 14.5413 203.211 14.5422 203.208 14.5432C203.198 14.546 203.188 14.5491 203.178 14.5522C203.165 14.5562 203.153 14.5602 203.14 14.5635L203.092 14.5767C203.048 14.5886 203.003 14.6018 202.959 14.6151C202.926 14.6251 202.893 14.6351 202.86 14.6444C201.111 13.6904 199.219 13.2059 197.29 13.1456L196.876 13.139C194.19 13.1391 191.147 13.868 188.705 16.1927L188.707 16.1944C188.111 16.7612 187.589 17.3707 187.134 18.0117C186.323 17.3975 185.464 16.836 184.557 16.3314L184.559 16.3297C181.226 14.4511 177.532 13.636 173.688 13.6755C169.809 13.6755 166.097 14.5072 162.728 16.3396C162.71 16.3495 162.691 16.3595 162.673 16.3696L162.641 16.3879C162.629 16.3944 162.618 16.4009 162.606 16.4074L162.582 16.4205C162.594 16.1498 162.602 15.8827 162.602 15.6199C162.602 10.5479 160.237 6.31859 156.062 3.55876L156.061 3.56207C152.131 0.900022 147.106 0.0594397 141.987 0.0594228C138.344 0.0595287 134.832 0.780163 131.522 2.24486C128.288 3.63711 125.44 5.639 123.017 8.20695L122.556 8.69884C120.83 10.5969 119.41 12.7271 118.281 15.0538C116.801 14.3172 115.198 13.9397 113.583 13.867L112.994 13.8538C110.046 13.8538 106.609 14.6686 104.059 17.401C101.704 14.8426 98.5421 13.9735 95.7697 13.8653L95.1573 13.8538C91.9882 13.8538 88.9277 15.0079 86.6137 17.5231L86.6054 17.533C86.5924 17.5473 86.5794 17.5616 86.5666 17.576C86.552 17.5924 86.5374 17.6088 86.5229 17.6253L86.5223 17.626C86.5093 17.6407 86.4963 17.6554 86.4833 17.67C85.9367 17.285 85.3686 16.9237 84.7798 16.5872L84.7782 16.5905C81.2207 14.518 77.0804 13.735 72.8045 13.7349C71.0898 13.7349 69.3676 13.9344 67.6545 14.2978L67.6347 14.3027L67.6132 14.3077C67.1313 14.4131 66.6546 14.5345 66.1838 14.6725C66.0294 13.4184 65.8213 12.2159 65.5483 11.0741C64.9468 8.52149 63.8515 5.90055 61.8591 3.7816L61.8608 3.77995C61.8535 3.77211 61.8458 3.76465 61.838 3.75719C61.8306 3.75002 61.8232 3.74286 61.8162 3.73538C61.8087 3.72743 61.8013 3.71909 61.794 3.71075C61.7861 3.70178 61.7782 3.69272 61.77 3.68421L61.7683 3.68586C59.2785 1.04924 56.0242 0.0594228 52.9094 0.0594228C49.7945 0.0595572 46.5402 1.04894 44.0504 3.68586L44.0488 3.68421C44.0408 3.69253 44.0334 3.70142 44.026 3.71032C44.0189 3.71883 44.0118 3.72739 44.0042 3.73538C43.9974 3.74273 43.9903 3.74991 43.9833 3.7571L43.9829 3.75749C43.975 3.76545 43.9672 3.77341 43.9597 3.7816C43.237 4.55028 42.6333 5.38558 42.1275 6.2592C40.6725 4.96649 39.0484 3.86023 37.2647 2.95133L37.2663 2.94968C33.5961 1.059 29.583 0.178268 25.3702 0.178268C21.2976 0.178307 17.3975 0.961026 13.9016 2.79782C10.6685 4.49667 7.93482 6.83351 5.77391 9.7701L5.76071 9.78825C3.7694 12.5134 2.30331 15.5469 1.34196 18.8354L1.31555 18.9278C0.438057 22.0966 3.85359e-05 25.3403 0 28.6401C0 31.1333 0.10797 33.6428 0.321873 36.167C0.554278 38.9094 1.02618 41.5356 1.77113 44.0191L1.77773 44.0372L1.78268 44.0554C2.60492 46.7414 3.89851 49.2843 5.8614 51.3875L5.94063 51.47C8.47874 54.0986 11.7615 55.2599 15.1446 55.2599C17.2832 55.2598 19.9181 54.93 22.2703 53.4739L22.305 53.4525L22.3413 53.4293C24.1962 52.249 25.8237 50.5268 26.7502 48.2018L26.7535 48.2034C26.7588 48.1902 26.7633 48.1766 26.7678 48.163C26.7721 48.1499 26.7764 48.1369 26.7815 48.1242C26.7861 48.1124 26.7914 48.1008 26.7967 48.0892C26.8024 48.0768 26.8081 48.0643 26.8129 48.0516L26.8096 48.0499C26.8231 48.0156 26.8359 47.981 26.8487 47.9465C26.8565 47.9254 26.8643 47.9042 26.8723 47.8832C29.455 47.86 31.9868 47.4213 34.4421 46.5743L34.4438 46.5759C34.4489 46.5741 34.4539 46.5721 34.459 46.5701L34.4628 46.5685C34.4691 46.5659 34.4753 46.5633 34.4817 46.5611C36.5513 45.8533 38.4748 44.8656 40.2391 43.613C40.7244 45.7979 41.4749 47.8923 42.6392 49.7088L42.6623 49.7435L42.6837 49.7765C45.0934 53.4391 48.8779 55.0815 52.85 55.0816C55.7454 55.0816 58.5866 54.1386 60.8919 52.0296C60.9032 52.0192 60.9143 52.0086 60.9253 51.9979C60.9351 51.9883 60.9448 51.9787 60.9545 51.969C60.9714 51.9522 60.9884 51.9353 61.0057 51.919C62.1519 52.733 63.4017 53.3828 64.723 53.8783L64.7477 53.8882L64.7725 53.8965C67.2268 54.7944 69.8082 55.2004 72.4463 55.2005C74.5491 55.2005 76.6238 55.0474 78.4926 54.5963L78.5982 54.5699L78.7038 54.5402C78.9603 54.4695 79.215 54.3925 79.4681 54.3124C81.172 55.0298 82.8938 55.2004 84.278 55.2005C84.5596 55.2005 84.8437 55.1869 85.1298 55.1675C85.5569 56.8088 86.3816 58.3873 87.6948 59.7463L87.6932 59.748C87.7034 59.7587 87.7142 59.7693 87.725 59.7798C87.7349 59.7895 87.7448 59.7992 87.7543 59.809C87.7764 59.8317 87.7978 59.8575 87.8203 59.88L87.8219 59.8784C89.3974 61.4922 91.3027 62.5529 93.3317 63.1565V63.1615C93.3541 63.1684 93.377 63.1745 93.3998 63.1805C93.4207 63.1861 93.4416 63.1916 93.4621 63.1978C93.4674 63.1995 93.4734 63.2012 93.4787 63.2027C95.2847 63.7464 97.1438 64 99.0215 64C103.627 63.9999 108.009 63.1044 111.819 60.9133L111.82 60.915C115.321 58.9223 118.19 56.2071 120.338 52.817L120.339 52.8186C120.733 52.2087 121.101 51.585 121.449 50.9501C121.471 50.9735 121.494 50.9971 121.517 51.0206C121.596 51.1035 121.676 51.1867 121.759 51.267L121.83 51.3347L121.903 51.4007C124.492 53.7745 127.72 55.141 131.346 55.141C133.683 55.141 136.523 54.6095 138.911 52.5991C140.751 51.0496 141.987 49.0491 142.613 46.8136L142.61 46.812C142.794 46.1921 142.944 45.5664 143.057 44.9352C143.724 44.9444 144.385 44.9559 145.038 44.9715L145.119 44.9732H145.2C147.209 44.9731 149.145 44.8335 150.978 44.5192C152.052 44.3352 153.145 44.0397 154.21 43.5998C154.423 44.0456 154.65 44.4871 154.895 44.922L154.932 44.9864L154.97 45.0491C156.834 48.1953 159.397 50.7197 162.559 52.5595L162.62 52.5958L162.685 52.6304C165.872 54.3948 169.386 55.2089 173.046 55.2599H173.825L173.871 55.2582C177.719 55.1541 181.386 54.2825 184.706 52.4769L184.747 52.4555L184.787 52.4324C185.903 51.8054 186.948 51.0934 187.92 50.303C188.255 50.7825 188.624 51.2461 189.029 51.6896L189.133 51.8018L189.242 51.9108C191.506 54.1745 194.394 55.1988 197.351 55.1988C199.76 55.1988 202.708 54.6317 205.129 52.4654L205.202 52.4027L205.271 52.335C206.995 50.7015 208.094 48.6935 208.668 46.5495C209.082 45.0993 209.334 43.6173 209.429 42.1143L209.46 41.4689C209.52 40.5041 209.559 39.5753 209.574 38.6859C210.47 38.9515 211.345 39.0727 212.134 39.12C212.44 40.8417 212.91 42.5113 213.567 44.1115L213.594 44.1792L213.623 44.2469C214.994 47.3876 217.038 50.1129 219.849 52.1402C222.834 54.2917 226.279 55.2599 229.869 55.2599C232.456 55.2597 235.002 54.7155 237.364 53.4987C237.412 53.4739 237.459 53.4475 237.507 53.421C237.543 53.4004 237.58 53.3798 237.617 53.36C237.663 53.3832 237.71 53.4069 237.756 53.4307C237.833 53.4702 237.91 53.5098 237.988 53.5465L238.063 53.5812L238.139 53.6142C240.41 54.6162 242.815 55.0816 245.268 55.0816C249.578 55.0814 253.488 53.7367 256.616 51.0062C258.058 52.2614 259.711 53.21 261.493 53.8783L261.518 53.8882L261.543 53.8965C263.997 54.7943 266.579 55.2004 269.217 55.2005C271.319 55.2005 273.394 55.0474 275.263 54.5963L275.369 54.5699L275.474 54.5402C275.731 54.4695 275.985 54.3925 276.238 54.3124C277.942 55.0296 279.664 55.2004 281.048 55.2005C283.197 55.2004 285.504 54.6524 287.492 53.2214C289.452 54.5714 291.716 55.1988 294.024 55.1988C296.432 55.1987 299.381 54.6315 301.802 52.4654L301.874 52.4027L301.944 52.335C303.668 50.7016 304.767 48.6934 305.341 46.5495C305.755 45.0994 306.007 43.6172 306.102 42.1143L306.133 41.4689C306.193 40.5041 306.232 39.5753 306.247 38.6859C306.984 38.9044 307.707 39.0243 308.38 39.087C308.778 40.764 309.374 42.3954 310.162 43.9712L310.205 44.0571C311.889 47.3091 314.302 49.9815 317.359 51.9999L317.384 52.0164L317.407 52.0313C320.799 54.2299 324.658 55.2005 328.696 55.2005C332.129 55.2004 335.456 54.7283 338.444 53.5086L338.499 53.4871L338.551 53.464C341.166 52.3433 343.542 50.8017 345.497 48.7448L345.499 48.7465C345.503 48.7427 345.506 48.7385 345.51 48.7343C345.513 48.7299 345.517 48.7256 345.52 48.7217L345.551 48.6897L345.572 48.6673C347.292 46.8773 348.69 44.8511 349.695 42.5896L349.697 42.5913C350.6 40.6329 351.288 38.6249 351.72 36.5731C352.083 34.8487 352.319 33.1538 352.387 31.5139C352.468 30.2593 352.519 29.1665 352.519 28.343C352.519 26.2759 352.407 24.1481 352.189 21.9633C351.991 19.984 351.688 18.0416 351.276 16.1399L351.093 15.3278C350.567 13.0417 349.828 10.8721 348.837 8.8606C348.815 8.81779 348.794 8.77451 348.772 8.73185C347.755 6.62004 346.396 4.66325 344.589 3.06523Z" fill="url(#paint0_linear_227_797)"/>
<path d="M328.583 11.8738C328.583 9.53866 329.329 7.31592 331.265 5.81006C332.77 4.63893 334.511 3.97388 336.424 3.97388C338.503 3.97395 340.396 4.66113 341.956 6.0414C343.322 7.24949 344.403 8.78567 345.245 10.562C346.097 12.2776 346.751 14.1737 347.223 16.233L347.391 16.9805C347.77 18.7302 348.05 20.5233 348.234 22.3584C348.441 24.424 348.545 26.4195 348.545 28.3433C348.545 29.0261 348.5 30.0006 348.422 31.2246C348.372 32.6345 348.169 34.1482 347.831 35.7543C347.471 37.467 346.891 39.173 346.112 40.8709C345.3 42.7341 344.143 44.4263 342.676 45.9467C341.142 47.5797 339.22 48.8543 336.986 49.8114L336.964 49.8205L336.942 49.8296C334.568 50.7984 331.787 51.2258 328.695 51.2258C325.306 51.2258 322.225 50.4182 319.569 48.6965L319.548 48.6838C317.053 47.0363 315.104 44.8742 313.734 42.229L313.725 42.2118L313.717 42.1936C312.419 39.5977 311.757 36.8536 311.757 33.9916C311.757 33.2914 311.787 32.6058 311.845 31.9367C312.382 31.6806 312.843 31.3159 313.228 30.8399C314.099 29.8095 314.536 28.7197 314.536 27.5703C314.536 26.6734 314.332 25.8387 313.928 25.0646C313.958 25.014 313.988 24.9624 314.019 24.9122L314.03 24.8959L314.04 24.8787C315.55 22.5195 317.515 20.6947 319.936 19.4989C322.255 18.3157 324.71 17.7081 327.268 17.7081C328.016 17.7081 328.767 17.7638 329.519 17.8723C329.514 17.8579 329.51 17.8431 329.506 17.8287L329.493 17.7906L329.48 17.7516C328.884 15.8262 328.583 13.8638 328.583 11.8738ZM331.37 11.8738C331.37 13.5782 331.628 15.2632 332.143 16.9279C332.698 18.553 333.055 20.2177 333.213 21.9221C332.302 21.4068 331.33 21.0497 330.299 20.8516C329.269 20.6138 328.258 20.495 327.268 20.495C325.167 20.495 323.145 20.9901 321.203 21.981C319.261 22.9323 317.656 24.3993 316.387 26.381C315.159 28.3628 314.544 30.8999 314.544 33.9916L314.551 34.4433C314.616 36.6983 315.168 38.8663 316.209 40.9471C317.358 43.1666 318.983 44.9705 321.084 46.3577C323.091 47.6583 325.446 48.3494 328.149 48.4307L328.695 48.4388C331.37 48.4388 333.645 48.0906 335.519 47.3937L335.889 47.2495C337.831 46.4171 339.417 45.3468 340.645 44.0389C341.913 42.731 342.884 41.3043 343.558 39.7587C344.183 38.406 344.655 37.0684 344.976 35.7461L345.104 35.18C345.421 33.674 345.6 32.3062 345.639 31.0776C345.699 30.1563 345.736 29.4133 345.751 28.8486L345.758 28.3433C345.758 26.52 345.659 24.617 345.461 22.6351C345.262 20.6534 344.946 18.7308 344.51 16.868C344.074 14.9656 343.478 13.2611 342.725 11.755C342.057 10.3432 341.249 9.19247 340.301 8.30307L340.11 8.12889C339.144 7.27422 338.003 6.81968 336.689 6.76626L336.424 6.76082C335.195 6.76082 334.046 7.17769 332.976 8.01004L332.781 8.17062C331.84 9.00432 331.37 10.239 331.37 11.8738Z" fill="white"/>
<path d="M329.051 39.0447C327.981 39.0447 327.029 38.6489 326.197 37.8563C325.454 37.0759 325.06 36.1733 325.013 35.1492L325.009 34.9423C325.009 33.8327 325.404 32.8615 326.197 32.0293C327.029 31.1969 327.981 30.781 329.051 30.781L329.251 30.7855C330.237 30.8343 331.102 31.2492 331.845 32.0293C332.638 32.8616 333.035 33.8326 333.035 34.9423C333.035 36.0521 332.638 37.0239 331.845 37.8563C331.053 38.6488 330.121 39.0447 329.051 39.0447Z" fill="white"/>
<path d="M314.536 27.5703C314.536 26.2227 314.079 25.0136 313.168 23.9434C312.313 22.9402 311.284 22.1463 310.081 21.5611L309.838 21.4468C308.53 20.8126 307.242 20.4951 305.973 20.4951C304.468 20.4951 303.001 20.6931 301.574 21.0893L301.065 21.2345C299.904 21.5986 298.924 22.1454 298.126 22.8738C297.888 21.883 297.333 21.1495 296.461 20.6738C295.698 20.223 294.859 19.9691 293.945 19.9127L293.547 19.9009C292.042 19.901 290.872 20.2968 290.04 21.0893L289.894 21.2336C289.176 21.9675 288.65 22.9103 288.316 24.0622C287.998 25.291 287.801 26.6391 287.721 28.1057L287.695 29.1716C287.673 30.2345 287.662 31.2864 287.662 32.3269L287.665 33.0971C287.682 34.8875 287.761 36.6324 287.9 38.3317C288.059 40.2738 288.356 41.9985 288.792 43.5046C289.228 45.0106 289.862 46.2192 290.694 47.1307C291.512 47.9481 292.538 48.3823 293.773 48.4335L294.024 48.4389C295.361 48.4389 296.403 48.1428 297.148 47.5508L297.293 47.4283C298.046 46.7148 298.562 45.8029 298.839 44.6931C299.156 43.5833 299.335 42.4338 299.374 41.2448C299.434 40.3232 299.471 39.4575 299.486 38.6474L299.493 37.8563C299.493 35.8745 300.088 34.3083 301.277 33.1588C302.506 31.9698 303.854 31.3752 305.32 31.3752L305.524 31.3789C305.992 31.3962 306.4 31.4743 306.746 31.6129C307.143 31.7715 307.56 31.95 307.996 32.1482C308.377 32.2868 308.849 32.3649 309.413 32.3822L309.66 32.3859C311.206 32.3858 312.395 31.8704 313.228 30.8399C314.045 29.8739 314.479 28.8559 314.53 27.7854L314.536 27.5703ZM316.387 26.381C315.229 28.2497 314.616 30.6119 314.55 33.4673C313.194 34.6463 311.488 35.1728 309.66 35.1728C308.796 35.1728 307.889 35.0749 307.043 34.7673L306.941 34.7301L306.843 34.6856C306.441 34.5032 306.064 34.342 305.712 34.2012C305.701 34.1975 305.588 34.1622 305.32 34.1622C304.697 34.1622 304.016 34.3862 303.215 35.1619C302.675 35.6838 302.28 36.4688 302.28 37.8563C302.28 38.9568 302.238 40.1471 302.156 41.4244C302.103 42.8042 301.893 44.1503 301.519 45.4587C301.12 46.9921 300.365 48.3572 299.21 49.4514L299.181 49.4786L299.152 49.5049C297.712 50.7939 295.855 51.2258 294.024 51.2259C292.012 51.2259 290.17 50.5469 288.724 49.1012L288.678 49.0567L288.636 49.0105C287.448 47.7096 286.638 46.0884 286.115 44.2794C285.616 42.5574 285.292 40.6436 285.122 38.5585C284.957 36.5368 284.875 34.4593 284.875 32.3269C284.875 30.9131 284.895 29.4796 284.935 28.0277L284.936 27.9914L284.938 27.9551C285.026 26.3324 285.248 24.7991 285.618 23.3664L285.628 23.3256L285.639 23.2857C286.11 21.6642 286.913 20.2162 288.121 19.069C289.616 17.6465 291.556 17.114 293.547 17.1139C295.087 17.1139 296.553 17.4907 297.879 18.2743C298.279 18.4995 298.64 18.7599 298.967 19.0508C299.575 18.7803 300.215 18.5615 300.88 18.3904C302.538 17.935 304.238 17.7082 305.973 17.7082C307.721 17.7082 309.423 18.1473 311.055 18.9383C312.7 19.6967 314.121 20.7649 315.29 22.1362C316.133 23.1263 316.727 24.2358 317.047 25.4394C316.818 25.7395 316.598 26.0526 316.387 26.381Z" fill="white"/>
<path d="M255.846 40.2339C255.846 40.1371 255.849 40.0406 255.852 39.9445C256.159 38.937 256.38 37.8572 256.516 36.7049C256.857 35.8732 257.332 35.0925 257.945 34.377C258.214 34.0632 258.5 33.7681 258.8 33.4897C258.449 33.2933 258.11 33.0639 257.79 32.7939L257.729 32.7422L257.672 32.6878C257.192 32.2344 256.818 31.7267 256.531 31.1854C256.465 30.5845 256.377 29.9739 256.266 29.3538C256.139 28.5324 255.966 27.7396 255.75 26.9742C255.86 25.448 256.363 24.0147 257.321 22.7747C258.293 21.5325 259.524 20.5238 260.945 19.7628C262.289 19.0431 263.721 18.5194 265.232 18.1888L265.25 18.1851C266.725 17.8723 268.168 17.708 269.573 17.7079C273.407 17.7079 276.804 18.414 279.576 20.0377C279.573 20.0356 279.58 20.0397 279.576 20.0377C279.583 20.0417 279.602 20.0517 279.609 20.0558C282.23 21.5604 284.267 23.593 285.603 26.1667C286.888 28.641 287.522 31.3235 287.522 34.1692C287.522 35.675 287.39 37.1117 287.11 38.4685C287.015 39.0065 286.896 39.5341 286.75 40.0407C286.952 40.3465 287.13 40.67 287.286 41.0087C287.786 42.009 288.057 43.0883 288.057 44.2175C288.057 46.0199 287.423 47.6475 286.255 49.003C284.893 50.5921 283.007 51.2255 281.049 51.2256C279.782 51.2256 278.456 51.0386 277.299 50.4219C277.039 50.2832 276.784 50.1321 276.533 49.971C275.853 50.2605 275.148 50.5077 274.417 50.7094L274.374 50.7212L274.33 50.7312C272.884 51.0802 271.155 51.2256 269.217 51.2256C266.988 51.2256 264.875 50.8838 262.908 50.1642L262.887 50.156C260.886 49.4055 259.184 48.2363 257.885 46.6125L257.87 46.5952L257.857 46.5771C256.457 44.7685 255.846 42.5875 255.846 40.2339ZM270.736 38.757C271.482 38.8003 272.046 38.9953 272.428 39.3421L272.594 39.4791C272.958 39.8042 273.141 40.1744 273.141 40.5904C273.141 41.066 272.903 41.5023 272.428 41.8986L272.252 42.0238C271.819 42.2969 271.204 42.4338 270.406 42.4339L270.088 42.4257C269.368 42.3867 268.8 42.2107 268.384 41.8986C267.909 41.5023 267.671 41.066 267.671 40.5904C267.671 40.1744 267.853 39.8041 268.217 39.4791L268.384 39.3421C268.86 38.9458 269.534 38.7479 270.406 38.7479L270.736 38.757ZM258.515 27.6292C258.515 28.9768 258.872 29.9881 259.585 30.662C260.338 31.2961 261.329 31.6127 262.558 31.6127C263.39 31.6127 264.045 31.5538 264.52 31.4349C265.035 31.2764 265.491 31.0978 265.887 30.8997C266.284 30.7015 266.72 30.5432 267.196 30.4243C267.711 30.2658 268.404 30.1857 269.276 30.1857C271.139 30.1857 272.447 30.5427 273.2 31.2562C273.954 31.93 274.33 32.7233 274.33 33.6349C273.973 33.3971 273.319 33.1983 272.368 33.0398C271.416 32.8416 270.366 32.7422 269.217 32.7422C267.275 32.7422 265.491 33.0404 263.866 33.6349C262.281 34.2294 261.012 35.0816 260.06 36.1914L259.888 36.4019C259.052 37.4702 258.633 38.7475 258.633 40.2339C258.633 42.0968 259.109 43.6428 260.06 44.8716C261.012 46.0606 262.281 46.9524 263.866 47.5469C265.39 48.1043 267.053 48.4003 268.855 48.4351L269.217 48.4387C271.04 48.4387 272.526 48.2997 273.676 48.0223C274.825 47.7052 275.875 47.269 276.827 46.7141C277.421 47.2294 278.017 47.6462 278.611 47.9633C279.131 48.2407 279.818 48.3968 280.672 48.4314L281.049 48.4387C282.396 48.4386 283.426 48.0224 284.14 47.1904C284.846 46.3729 285.221 45.4507 285.265 44.4243L285.27 44.2175C285.27 43.5436 285.111 42.8894 284.794 42.2552C284.516 41.6211 284.1 41.066 283.545 40.5904C283.902 39.9563 284.18 39.0645 284.378 37.9151C284.586 36.9093 284.703 35.8275 284.729 34.67L284.735 34.1692C284.735 31.9027 284.265 29.7927 283.324 27.8396L283.129 27.4514C282.126 25.519 280.617 23.935 278.604 22.6994L278.195 22.4572C275.975 21.1492 273.101 20.4949 269.573 20.4949C268.384 20.4949 267.136 20.6338 265.828 20.9113C264.559 21.1888 263.37 21.625 262.26 22.2195L261.854 22.4499C260.926 23.0048 260.15 23.6808 259.526 24.4784C258.852 25.3504 258.515 26.4006 258.515 27.6292Z" fill="white"/>
<path d="M256.682 33.8129C256.682 32.386 256.543 30.8995 256.266 29.3538C256.028 27.8081 255.632 26.3614 255.078 25.0139C254.562 23.6662 253.848 22.5757 252.936 21.7434C252.065 20.9112 250.994 20.4951 249.726 20.4951C246.872 20.4952 245.446 22.1996 245.446 25.6081L245.453 25.8966C245.488 26.5814 245.644 27.3576 245.921 28.2245C246.238 29.1757 246.535 30.1467 246.813 31.1375C247.13 32.0888 247.288 32.9612 247.288 33.7539L247.277 34.2148C247.168 36.444 246.24 37.5587 244.494 37.5587L244.298 37.5533C243.339 37.4953 242.71 37.0016 242.413 36.0727C242.135 35.0422 242.017 33.7336 242.056 32.1481C242.136 30.5231 242.175 28.8583 242.175 27.154C242.175 25.8857 241.799 24.7564 241.046 23.7655C240.377 22.7993 239.307 22.2854 237.837 22.2251L237.538 22.2197C235.952 22.2197 234.803 22.7351 234.089 23.7655C233.416 24.7563 233.079 25.8858 233.079 27.154V32.1481C233.118 33.7336 232.98 35.0422 232.663 36.0727L232.607 36.2523C232.307 37.1232 231.711 37.5587 230.82 37.5587L230.653 37.5551C229.835 37.518 229.296 37.2017 229.036 36.6071C228.828 36.0522 228.711 35.2549 228.685 34.2148L228.68 33.7539C228.68 32.9612 228.778 32.0888 228.976 31.1375C229.214 30.1467 229.432 29.1757 229.63 28.2245C229.868 27.2732 229.987 26.4404 229.987 25.7269C229.987 24.1417 229.591 22.8733 228.798 21.9221C228.092 20.9932 227.055 20.4997 225.688 20.4415L225.409 20.4361C224.141 20.4361 223.051 20.8716 222.14 21.7434L221.819 22.0682C221.091 22.8528 220.484 23.8348 219.999 25.0139L219.811 25.5246C219.386 26.7296 219.053 28.0259 218.81 29.4129L218.726 29.9899C218.544 31.3296 218.453 32.6241 218.453 33.8727L218.458 34.4107C218.511 37.084 218.966 39.4613 219.821 41.5423C220.772 43.7222 222.1 45.4266 223.804 46.6553C225.402 47.8071 227.278 48.4195 229.433 48.4915L229.868 48.4987C231.392 48.4987 232.776 48.202 234.021 47.6097L234.268 47.4872C235.576 46.8134 236.666 45.9813 237.538 44.9906C238.409 45.9814 239.52 46.7941 240.867 47.4282C242.13 47.9856 243.499 48.2815 244.971 48.3164L245.267 48.32C248.794 48.32 251.569 47.0121 253.591 44.3963C255.652 41.7407 256.682 38.2125 256.682 33.8129ZM259.469 33.8129C259.469 35.0727 259.391 36.2891 259.232 37.4571C258.834 38.2834 258.633 39.2087 258.633 40.2339C258.633 40.2749 258.635 40.3159 258.636 40.3565C258.036 42.4871 257.102 44.4134 255.795 46.0992C253.206 49.4494 249.591 51.107 245.267 51.107C243.324 51.1069 241.471 50.7409 239.742 49.9784L239.68 49.9494C238.926 49.5942 238.217 49.1845 237.559 48.7201C236.932 49.1815 236.26 49.5964 235.544 49.9648C233.802 50.8625 231.89 51.2857 229.868 51.2857C227.014 51.2856 224.406 50.5252 222.174 48.916C220.013 47.3581 218.39 45.2326 217.266 42.6563L217.254 42.6291L217.242 42.601C216.266 40.223 215.762 37.5885 215.678 34.7387C215.67 34.4522 215.666 34.1635 215.666 33.8727C215.666 33.125 215.695 32.3665 215.753 31.598L215.754 31.5947C216.05 31.3845 216.318 31.1342 216.556 30.8399C217.428 29.8095 217.864 28.7197 217.864 27.5704C217.864 27.2334 217.835 26.9052 217.778 26.5856C217.666 25.9583 217.444 25.3648 217.113 24.8043C217.203 24.5395 217.297 24.2773 217.396 24.0186L217.408 23.9851L217.422 23.9524C217.715 23.2406 218.054 22.5657 218.443 21.9355C218.946 21.119 219.534 20.3775 220.214 19.7276C221.647 18.3577 223.428 17.6492 225.409 17.6491C227.542 17.6491 229.547 18.3779 230.938 20.1385C231.387 20.6783 231.743 21.2631 232.018 21.8804C233.392 20.1206 235.425 19.4328 237.538 19.4327C239.715 19.4327 241.835 20.1392 243.223 22.0201C243.49 21.2877 243.864 20.5987 244.379 19.9843C245.765 18.3289 247.727 17.7082 249.726 17.7081C251.649 17.7081 253.403 18.3595 254.815 19.6858C256.081 20.8414 257.011 22.295 257.654 23.9524C258.026 24.8549 258.331 25.7897 258.577 26.7539C258.536 27.0349 258.515 27.3265 258.515 27.6292C258.515 28.7268 258.752 29.6014 259.225 30.2521C259.386 31.4613 259.469 32.6486 259.469 33.8129Z" fill="white"/>
<path fill-rule="evenodd" clip-rule="evenodd" d="M73.9676 38.7577C74.7129 38.8011 75.2764 38.9954 75.6578 39.342L75.8245 39.479C76.1884 39.8039 76.3707 40.1741 76.3709 40.5899C76.3709 41.0655 76.1334 41.5025 75.6578 41.8988L75.4829 42.0243C75.0495 42.2971 74.4344 42.4335 73.6374 42.4336L73.3189 42.4254C72.5997 42.3863 72.0315 42.2106 71.6154 41.8988C71.1399 41.5025 70.9023 41.0654 70.9023 40.5899C70.9026 40.1742 71.0835 39.8038 71.447 39.479L71.6154 39.342C72.091 38.9459 72.7658 38.7478 73.6374 38.7478L73.9676 38.7577Z" fill="white"/>
<path d="M59.9256 27.5697C59.9256 24.5177 59.8665 21.7235 59.7476 19.1868C59.6683 16.6501 59.4107 14.4699 58.9747 12.6467C58.5659 10.9004 57.9311 9.53702 57.0696 8.55701L56.8945 8.3665C56.0026 7.40035 54.7795 6.88643 53.2257 6.82606L52.9109 6.82062C51.2065 6.82062 49.8786 7.33595 48.9274 8.3665C47.9761 9.35736 47.2822 10.7839 46.8462 12.6467C46.4102 14.4699 46.1323 16.6501 46.0134 19.1868C45.9341 21.7235 45.8946 24.5183 45.8946 27.5703L45.9027 29.2731C45.9374 33.1616 46.0934 36.4584 46.3709 39.1635C46.6879 42.2155 47.3413 44.5151 48.3322 46.061C49.2612 47.4729 50.6435 48.2226 52.4782 48.3108L52.851 48.3199C55.6255 48.3199 57.4881 46.6155 58.4394 43.2069C59.3684 39.9741 59.8619 35.1909 59.92 28.8576L59.9256 27.5697ZM61.7446 27.6291C61.7446 27.7975 61.7502 27.9607 61.7614 28.1186C61.8337 29.1414 62.1401 29.9439 62.6797 30.525C62.6187 33.3091 62.4685 35.8199 62.2173 38.0434L62.217 38.0458C62.0318 38.5742 61.9189 39.1388 61.8794 39.74C61.8688 39.9018 61.8635 40.0662 61.8635 40.2333C61.8635 40.3402 61.8665 40.4467 61.8696 40.5515L61.8684 40.5585C61.6601 41.8104 61.4137 42.9472 61.122 43.9644C60.9511 44.5757 60.748 45.1681 60.5076 45.7337C59.9574 47.0278 59.2121 48.1812 58.2108 49.0974C56.7131 50.4677 54.86 51.1069 52.851 51.1069C50.0255 51.1068 47.5801 49.9875 46.0043 47.5923L45.9862 47.5642C44.6531 45.4844 43.934 42.682 43.5984 39.452C43.2682 36.2322 43.1076 32.2614 43.1076 27.5703C43.1076 24.4948 43.1479 21.6705 43.2283 19.0997L43.2301 19.0561C43.3545 16.402 43.6475 14.0396 44.1355 11.999C44.6386 9.85629 45.4962 7.93459 46.8789 6.47588C48.469 4.75323 50.6095 4.03368 52.9109 4.03368C55.1942 4.03374 57.3169 4.74341 58.903 6.43687C58.9156 6.44999 58.9295 6.46268 58.942 6.47588C60.3251 7.93465 61.1823 9.85603 61.6854 11.999L61.8596 12.7855C62.2403 14.6447 62.4576 16.7421 62.5318 19.0561L62.6006 20.7677L62.6117 21.0447C62.6495 22.1753 62.6729 23.3493 62.6897 24.5666L62.6897 24.5683C62.1633 25.2832 61.856 26.1142 61.7698 27.0622C61.7691 27.0697 61.7684 27.0772 61.7678 27.0847C61.7524 27.2621 61.7446 27.4436 61.7446 27.6291Z" fill="white"/>
<path d="M42.9096 23.6458C42.9096 20.413 42.213 17.5982 40.8194 15.2015L40.5319 14.7279C38.9464 12.2308 36.8253 10.3084 34.1696 8.96081C31.7172 7.69755 28.9863 7.0267 25.9766 6.94771L25.3706 6.93955C22.1602 6.93957 19.3855 7.55341 17.047 8.78209C14.7084 10.0108 12.7667 11.6764 11.2209 13.7772L10.9424 14.1664C9.57455 16.1287 8.53757 18.3175 7.83157 20.7327C7.11811 23.3091 6.76106 25.9456 6.76106 28.6409L6.76651 29.5036C6.78818 31.5194 6.88523 33.5503 7.05863 35.5964C7.25681 37.935 7.65343 40.0957 8.24797 42.0775C8.84252 44.0195 9.69473 45.5851 10.8045 46.7741C11.845 47.8518 13.1816 48.4242 14.8143 48.4915L15.1446 48.4987C16.5935 48.4987 17.729 48.2719 18.5511 47.8192L18.7117 47.7258C19.5836 47.1709 20.1782 46.4769 20.4953 45.6447C20.852 44.7728 21.0111 43.8412 20.9716 42.8505C20.9716 41.8595 20.8722 40.8878 20.674 39.9365C22.418 40.65 24.3008 41.0466 26.3223 41.1259C28.3436 41.1655 30.3251 40.848 32.2672 40.1742C34.125 39.5425 35.809 38.5978 37.3185 37.3392L37.6188 37.0833C39.2439 35.6564 40.5313 33.8325 41.4826 31.6129C42.4339 29.3932 42.9096 26.7374 42.9096 23.6458ZM45.6966 23.6458C45.6966 27.0132 45.1798 30.0616 44.0446 32.7106C42.9489 35.2672 41.4288 37.4457 39.4568 39.1772C37.603 40.7993 35.5028 42.0149 33.1798 42.8069C30.9321 43.5867 28.6239 43.958 26.2678 43.9119H26.2397L26.2125 43.911C25.3753 43.8781 24.5534 43.7961 23.7476 43.6669C23.6937 44.6869 23.4812 45.6808 23.099 46.6353C23.0956 46.6441 23.0923 46.6538 23.089 46.6625C23.084 46.6748 23.0795 46.6875 23.0745 46.6997C22.5057 48.1486 21.483 49.2648 20.2077 50.0764L20.1932 50.0863L20.1787 50.0954C18.7198 50.9984 16.9347 51.2857 15.1446 51.2857C12.7017 51.2857 10.4981 50.4693 8.79956 48.7101L8.7669 48.6756C7.30541 47.1097 6.27101 45.1419 5.5826 42.8931C4.92607 40.7046 4.49396 38.3372 4.28166 35.8323C4.077 33.4172 3.97413 31.0198 3.97412 28.6409C3.97412 25.6963 4.36423 22.8094 5.14533 19.9888L5.15621 19.9507C5.99517 17.0807 7.26385 14.4673 8.97011 12.1324C10.7695 9.68709 13.0433 7.73792 15.7506 6.31539C18.5662 4.83601 21.8047 4.15263 25.3706 4.15261C29.0175 4.15261 32.3955 4.9118 35.4461 6.48322C38.5381 8.05535 41.0315 10.3158 42.8842 13.2338C44.7976 16.2473 45.6965 19.7579 45.6966 23.6458Z" fill="white"/>
<path d="M25.9657 31.8506L25.6999 31.8451C24.3832 31.7848 23.2231 31.2715 22.2199 30.3056C21.2537 29.3023 20.7398 28.1592 20.6794 26.8773L20.674 26.6187C20.6741 25.2812 21.1266 24.1179 22.0321 23.1287L22.2199 22.9327C23.29 21.8626 24.5389 21.3279 25.9657 21.3279L26.2306 21.3333C27.5451 21.396 28.6856 21.9294 29.6517 22.9327C30.7218 23.9632 31.2565 25.1919 31.2566 26.6187C31.2566 28.006 30.7219 29.2354 29.6517 30.3056L29.4558 30.4925C28.4665 31.398 27.3032 31.8505 25.9657 31.8506Z" fill="white"/>
<path fill-rule="evenodd" clip-rule="evenodd" d="M188.61 34.408C188.578 33.307 188.443 32.2555 188.206 31.2536L188.206 31.2664C188.441 32.2645 188.578 33.3116 188.61 34.408ZM188.611 34.8437C188.599 35.6896 188.514 36.5113 188.359 37.3093L188.36 37.3178C188.513 36.5312 188.597 35.7212 188.611 34.8879L188.611 34.8437Z" fill="white"/>
<path fill-rule="evenodd" clip-rule="evenodd" d="M216.556 30.8399C216.318 31.1342 216.05 31.3845 215.754 31.5947L215.753 31.598C215.661 31.6634 215.566 31.7247 215.469 31.7819C215.881 31.5404 216.244 31.2264 216.556 30.8399Z" fill="white"/>
<path fill-rule="evenodd" clip-rule="evenodd" d="M217.113 24.8043C217.203 24.5395 217.297 24.2773 217.396 24.0186L217.408 23.9851L217.422 23.9524C217.715 23.2406 218.054 22.5657 218.443 21.9355C217.308 20.6603 215.947 19.6593 214.382 18.9383C212.751 18.1473 211.048 17.7082 209.301 17.7082C207.565 17.7082 205.866 17.935 204.208 18.3904C203.543 18.5615 202.903 18.7803 202.295 19.0508C201.968 18.7599 201.606 18.4995 201.207 18.2743C199.881 17.4907 198.415 17.1139 196.875 17.1139C194.884 17.114 192.943 17.6465 191.448 19.069C190.241 20.2162 189.438 21.6642 188.967 23.2857L188.955 23.3256L188.945 23.3664C188.79 23.9663 188.662 24.5839 188.558 25.2182C187.034 22.9545 185.039 21.1406 182.607 19.7911C180.107 18.382 177.3 17.6924 174.26 17.6491H173.649C170.365 17.6546 167.333 18.3583 164.627 19.8301C161.955 21.2833 159.818 23.2872 158.281 25.8322C157.504 27.1 156.934 28.4529 156.563 29.8794C156.258 29.2095 155.834 28.5865 155.269 28.0375L154.98 27.7726L154.73 27.5685C153.467 26.573 151.943 25.9955 150.307 25.715C149.168 25.4916 147.961 25.3536 146.693 25.2941C148.155 25.2154 149.509 25.067 150.75 24.8414C152.901 24.4576 154.855 23.6396 156.326 22.1688C158.042 20.4527 158.628 18.0733 158.628 15.6196C158.628 11.9391 156.982 8.94961 153.915 6.90408C150.938 4.85078 146.82 4.03368 141.988 4.03368C138.884 4.03368 135.927 4.64141 133.146 5.86986C130.55 6.97946 128.25 8.5511 126.26 10.5674L125.865 10.9774C123.778 13.1616 122.167 15.7536 121.018 18.7141C120.596 19.8031 120.252 20.9266 119.986 22.083C119.592 21.3888 119.123 20.7475 118.571 20.1715C117.101 18.5539 115.136 17.8277 112.993 17.8276C110.538 17.8276 108.153 18.5563 106.573 20.5677C105.279 22.2302 104.737 24.2416 104.737 26.3812C104.737 27.7558 104.758 29.0967 104.798 30.3956C104.834 31.5137 104.796 32.4794 104.697 33.3023C104.647 33.7212 104.551 33.9549 104.478 34.0814C104.402 34.0966 104.273 34.1177 104.075 34.1177C103.876 34.1177 103.746 34.0967 103.671 34.0814C103.598 33.9548 103.503 33.7205 103.453 33.3023C103.354 32.482 103.316 31.4932 103.352 30.3295C103.393 28.9928 103.413 27.6371 103.413 26.2624C103.413 24.208 102.833 22.2993 101.607 20.6651C100.061 18.5604 97.6371 17.8276 95.1567 17.8276C92.9884 17.8277 91.0244 18.5985 89.5347 20.2178C88.5735 21.2665 87.8744 22.5255 87.3856 23.9218C86.1726 22.38 84.6452 21.0924 82.8397 20.056C82.8328 20.0519 82.8136 20.0419 82.8067 20.0378C80.0344 18.4142 76.6378 17.7071 72.8039 17.7071C71.3984 17.7072 69.9556 17.873 68.4809 18.1858L68.4627 18.1891C66.9514 18.5198 65.5192 19.0427 64.176 19.7622C63.6206 20.0597 63.094 20.3952 62.6006 20.7677L62.6117 21.0447C62.6495 22.1753 62.6729 23.3493 62.6897 24.5666C62.7116 24.5368 62.7338 24.5073 62.7565 24.478C63.3806 23.6806 64.1564 23.0042 65.0839 22.4494L65.4916 22.22C66.6012 21.6255 67.7904 21.1885 69.0586 20.911C70.3663 20.6337 71.615 20.4951 72.8039 20.4951C76.3315 20.4951 79.2055 21.1497 81.4251 22.4577L81.8345 22.6987C83.8479 23.9341 85.3556 25.5188 86.3589 27.4508L86.5206 27.7727C87.3134 29.3973 87.7756 31.1316 87.9154 32.9739C87.9362 33.2477 87.9487 33.5238 87.955 33.8025C87.9561 33.8486 87.9578 33.8947 87.9594 33.9409C87.9622 34.0167 87.9649 34.0927 87.9649 34.1689C87.9649 35.5165 87.8462 36.7664 87.6084 37.9158C87.5211 38.4221 87.4162 38.8779 87.2981 39.2842C87.1481 39.7996 86.9758 40.2354 86.7765 40.5899C87.3313 41.0654 87.7469 41.6213 88.0244 42.2554C88.3414 42.8895 88.4997 43.5442 88.4997 44.218L88.4964 44.4243C88.4523 45.4507 88.0766 46.3733 87.3707 47.1908C86.6573 48.0228 85.6263 48.4385 84.2791 48.4386L83.9027 48.432C83.0488 48.3974 82.3613 48.2406 81.8411 47.9632C81.2467 47.6462 80.6512 47.2289 80.0568 46.7137C79.1055 47.2686 78.055 47.7056 76.9057 48.0227C75.7564 48.3 74.2702 48.4386 72.4473 48.4386L72.0858 48.4353C70.2836 48.4005 68.6196 48.1047 67.096 47.5473C65.5108 46.9528 64.2424 46.0605 63.2913 44.8716C62.3959 43.7151 61.9211 42.2769 61.8684 40.5585C61.6601 41.8104 61.4137 42.9472 61.122 43.9644C60.9511 44.5757 60.748 45.1681 60.5076 45.7337C60.6834 46.0227 60.8765 46.3039 61.0877 46.5767L61.1009 46.5949L61.1157 46.613C62.4146 48.2364 64.1163 49.4048 66.1172 50.1553L66.1386 50.1635C68.1056 50.8832 70.2182 51.2249 72.4473 51.2249C74.3859 51.2249 76.115 51.0804 77.561 50.7314L77.6039 50.7215L77.6468 50.7099C78.378 50.5082 79.0838 50.2599 79.7629 49.9704C80.0144 50.1316 80.2705 50.284 80.5305 50.4227C81.6865 51.039 83.0125 51.2249 84.2791 51.2249C86.235 51.2248 88.1184 50.5921 89.4802 49.0065C89.0003 49.8397 88.7684 50.8756 88.7424 52.3028C88.7424 54.0551 89.3053 55.7131 90.5779 57.0153C91.6576 58.1546 93.0139 58.9262 94.5229 59.3675L94.5691 59.3807C95.9899 59.8146 97.479 60.0244 99.0209 60.0244C103.139 60.0244 106.804 59.2215 109.869 57.4494C112.819 55.7671 115.209 53.5003 117 50.6637C118.759 47.936 120.002 44.8857 120.744 41.5415C121.592 44.3511 122.799 46.7351 124.529 48.4161L124.557 48.4442L124.587 48.4714C126.493 50.2188 128.78 51.1658 131.346 51.1658C133.125 51.1658 134.925 50.7616 136.352 49.5601C137.553 48.5486 138.364 47.2448 138.785 45.7407C139.172 44.4583 139.365 43.1351 139.365 41.7799C139.365 41.5009 139.36 41.2245 139.353 40.9507C139.597 40.9442 139.842 40.9398 140.086 40.9398C141.809 40.9398 143.491 40.9597 145.133 40.9987L145.165 40.9997H145.199C147.029 40.9997 148.736 40.8717 150.307 40.6023C152.053 40.3031 153.671 39.6666 154.98 38.5448L155.036 38.4958C155.547 38.0335 155.952 37.5144 156.268 36.9564C156.605 39.0808 157.299 41.0915 158.358 42.9702L158.373 42.9965L158.388 43.0219C159.902 45.5771 161.972 47.6198 164.557 49.1238L164.583 49.1383L164.609 49.1528C167.146 50.5573 170.002 51.2419 173.102 51.2848H173.744L173.763 51.2839C177.073 51.1944 180.111 50.4515 182.807 48.985L182.84 48.9669C185.471 47.49 187.582 45.4972 189.11 42.9938C189.211 43.4334 189.322 43.862 189.442 44.2794C189.966 46.0884 190.776 47.7096 191.964 49.0105L192.006 49.0567L192.052 49.1012C193.497 50.5469 195.34 51.2259 197.351 51.2259C199.183 51.2258 201.039 50.7939 202.48 49.5049L202.509 49.4786L202.538 49.4514C203.693 48.3572 204.448 46.9921 204.847 45.4587C205.221 44.1503 205.431 42.8042 205.484 41.4244C205.566 40.1471 205.608 38.9568 205.608 37.8563C205.608 36.4688 206.002 35.6838 206.542 35.1619C207.344 34.3862 208.024 34.1622 208.648 34.1622C208.915 34.1622 209.028 34.1975 209.04 34.2012C209.392 34.342 209.769 34.5032 210.17 34.6856L210.268 34.7301L210.371 34.7673C211.217 35.0749 212.123 35.1728 212.988 35.1728C213.927 35.1728 214.834 35.0338 215.678 34.7387C215.67 34.4522 215.666 34.1635 215.666 33.8727C215.666 33.125 215.695 32.3665 215.753 31.598C215.661 31.6634 215.566 31.7247 215.469 31.7819C214.781 32.1845 213.954 32.3858 212.988 32.3859L212.74 32.3822C212.177 32.3649 211.705 32.2868 211.323 32.1482C210.887 31.95 210.47 31.7715 210.074 31.6129C209.727 31.4743 209.32 31.3962 208.852 31.3789L208.648 31.3752C207.181 31.3752 205.833 31.9698 204.605 33.1588C203.415 34.3083 202.821 35.8745 202.821 37.8563L202.814 38.6474C202.799 39.4575 202.762 40.3232 202.702 41.2448C202.663 42.4338 202.484 43.5833 202.167 44.6931C201.889 45.8029 201.374 46.7148 200.621 47.4283L200.476 47.5508C199.73 48.1428 198.689 48.4389 197.351 48.4389L197.101 48.4335C195.866 48.3823 194.839 47.9481 194.022 47.1307C193.19 46.2192 192.556 45.0106 192.12 43.5046C191.684 41.9985 191.386 40.2738 191.228 38.3317C191.089 36.6324 191.01 34.8875 190.993 33.0971L190.993 33.0663C190.99 32.8207 190.989 32.5742 190.989 32.3269C190.989 31.2864 191 30.2345 191.023 29.1716L191.049 28.1057C191.128 26.6391 191.326 25.291 191.643 24.0622C191.978 22.9103 192.504 21.9675 193.222 21.2336L193.368 21.0893C194.2 20.2968 195.369 19.901 196.875 19.9009L197.273 19.9127C198.187 19.9691 199.026 20.223 199.789 20.6738C200.661 21.1495 201.216 21.883 201.454 22.8738C202.252 22.1454 203.231 21.5986 204.393 21.2345L204.902 21.0893C206.329 20.6931 207.795 20.4951 209.301 20.4951C210.569 20.4951 211.858 20.8126 213.166 21.4468L213.409 21.5611C214.612 22.1463 215.641 22.9402 216.495 23.9434C216.606 24.073 216.709 24.2047 216.807 24.3384C216.917 24.491 217.019 24.6464 217.113 24.8043ZM165.959 22.2786C168.077 21.1268 170.473 20.5145 173.148 20.4424L173.687 20.4361C176.541 20.3964 179.058 20.991 181.238 22.2197L181.649 22.4546C183.677 23.6577 185.303 25.2443 186.53 27.2138L186.768 27.6112C187.42 28.742 187.899 29.9562 188.206 31.2536C188.443 32.2555 188.578 33.307 188.61 34.408C188.613 34.554 188.613 34.6992 188.611 34.8437L188.611 34.8879C188.597 35.7212 188.513 36.5312 188.36 37.3178C188.073 38.7873 187.542 40.1754 186.767 41.4824C185.499 43.5831 183.736 45.2681 181.477 46.5364L181.048 46.7596C179.035 47.7719 176.763 48.3448 174.233 48.477L173.687 48.4987C170.754 48.5383 168.178 47.9429 165.959 46.7143C163.779 45.4459 162.054 43.7416 160.786 41.6012C159.557 39.4214 158.903 37.0237 158.824 34.408C158.784 31.7127 159.399 29.3339 160.667 27.2728C161.856 25.3035 163.481 23.7175 165.541 22.5145L165.959 22.2786ZM155.841 15.6196C155.841 12.8848 154.672 10.7442 152.333 9.19841C150.178 7.7121 147.012 6.92255 142.837 6.82969L141.988 6.82062C139.253 6.82062 136.677 7.35528 134.259 8.42547C131.841 9.45597 129.721 10.9424 127.898 12.8844C126.074 14.7869 124.647 17.0664 123.617 19.722C122.586 22.3775 122.071 25.3106 122.071 28.521C122.071 33.2378 122.448 37.0632 123.201 39.9963C123.994 42.9293 125.083 45.0699 126.471 46.4175C127.897 47.7255 129.523 48.3789 131.346 48.3789C132.646 48.3789 133.668 48.1006 134.411 47.5433L134.557 47.4281C135.31 46.794 135.825 45.9814 136.102 44.9905C136.38 44.0888 136.536 43.1568 136.571 42.1944L136.578 41.7799C136.578 41.1457 136.558 40.531 136.519 39.9364C136.479 39.342 136.419 38.7675 136.34 38.2127H138.184C138.818 38.1731 139.452 38.1528 140.086 38.1528L141.386 38.1565C142.248 38.1614 143.1 38.1715 143.943 38.1864L145.199 38.2127C146.69 38.2127 148.06 38.1217 149.309 37.9396L149.837 37.8562C151.137 37.6332 152.194 37.2007 153.006 36.5598L153.166 36.4291C153.946 35.7232 154.361 34.6861 154.41 33.3183L154.414 33.0398C154.414 31.6528 153.998 30.6025 153.166 29.8891C152.334 29.1757 151.224 28.6999 149.837 28.4621C148.623 28.2193 147.287 28.0823 145.83 28.052L145.199 28.0456C143.95 28.0159 142.679 27.9977 141.386 27.9903L140.086 27.9867H137.946C137.232 27.9867 136.518 28.006 135.805 28.0456C135.844 27.8871 135.865 27.7085 135.865 27.5104C135.976 26.5072 136.366 25.6608 137.035 24.9711L137.173 24.835C137.966 24.0821 138.976 23.527 140.205 23.1703C141.28 22.8235 142.401 22.6285 143.567 22.5852L144.07 22.5761C146.447 22.5761 148.508 22.4177 150.252 22.1007C152.036 21.7836 153.403 21.1487 154.355 20.1974C155.284 19.2684 155.777 17.8694 155.835 15.9997L155.841 15.6196ZM108.773 22.2777C109.645 21.1686 111.052 20.6139 112.993 20.6139L113.272 20.6205C114.647 20.6787 115.743 21.1723 116.561 22.1011C117.472 23.0523 118.127 24.3405 118.523 25.9653C118.919 27.5503 119.117 29.314 119.117 31.2555C119.117 34.5055 118.759 37.6965 118.046 40.8276C117.372 43.9191 116.243 46.6943 114.657 49.1517C113.112 51.609 111.05 53.5714 108.474 55.0379C105.937 56.5042 102.786 57.2381 99.0209 57.2382L98.5339 57.2299C97.4072 57.1908 96.3405 57.0154 95.335 56.7034C94.2254 56.3862 93.3133 55.8503 92.5999 55.0973C91.9315 54.4287 91.5756 53.5687 91.5336 52.5173L91.5303 52.3028C91.5305 51.0025 92.0879 49.9986 93.2024 49.2904L93.4335 49.1517C94.7016 48.4386 96.1285 48.1217 97.7136 48.2009C99.457 48.2406 100.805 48.1613 101.756 47.9632C102.746 47.7255 103.5 47.2898 104.016 46.6559C100.369 46.6559 97.4556 46.12 95.2756 45.0499C93.0957 43.9797 91.5093 42.3143 90.5185 40.0551C90.1816 39.255 89.9058 38.37 89.6882 37.4008C89.5062 36.5906 89.3675 35.7212 89.2689 34.7928C89.1526 33.6963 89.0923 32.5169 89.0923 31.2555C89.0924 29.314 89.2904 27.5503 89.6866 25.9653C90.0829 24.3406 90.718 23.0523 91.5897 22.1011C92.5014 21.1102 93.6902 20.6139 95.1567 20.6139C97.1386 20.6139 98.5451 21.1894 99.3774 22.3388C100.21 23.4486 100.627 24.7563 100.627 26.2624C100.627 27.6098 100.607 28.9375 100.568 30.2454L100.556 30.7141C100.539 31.7933 100.582 32.7672 100.686 33.6341L100.739 33.9972C100.887 34.8207 101.186 35.4925 101.637 36.0127L101.738 36.12C102.256 36.6424 103.035 36.9039 104.075 36.904C105.115 36.9039 105.895 36.6424 106.412 36.12L106.511 36.0127C106.962 35.4925 107.264 34.8208 107.411 33.9972L107.464 33.6341C107.583 32.6435 107.622 31.533 107.583 30.3048C107.553 29.3539 107.536 28.3803 107.528 27.3848L107.523 26.3812C107.523 24.7165 107.94 23.3479 108.773 22.2777Z" fill="white"/>
<path fill-rule="evenodd" clip-rule="evenodd" d="M61.8635 40.2333C61.8635 40.3428 61.8651 40.4512 61.8684 40.5585L61.8696 40.5515C61.8665 40.4467 61.8635 40.3402 61.8635 40.2333ZM61.8794 39.74C61.9189 39.1388 62.0318 38.5742 62.217 38.0458L62.2173 38.0434C62.0315 38.5723 61.9188 39.1379 61.8794 39.74ZM62.6897 24.5666C62.1629 25.2816 61.8559 26.1136 61.7698 27.0622C61.856 26.1142 62.1633 25.2832 62.6897 24.5683L62.6897 24.5666ZM73.9676 38.7577C74.7129 38.8011 75.2764 38.9954 75.6578 39.342L75.8245 39.479C76.1884 39.8039 76.3707 40.1741 76.3709 40.5899C76.3709 41.0655 76.1334 41.5025 75.6578 41.8988L75.4829 42.0243C75.0495 42.2971 74.4344 42.4335 73.6374 42.4336L73.3189 42.4254C72.5997 42.3863 72.0315 42.2106 71.6154 41.8988C71.1399 41.5025 70.9023 41.0654 70.9023 40.5899C70.9026 40.1742 71.0835 39.8038 71.447 39.479L71.6154 39.342C72.091 38.9459 72.7658 38.7478 73.6374 38.7478L73.9676 38.7577Z" fill="white"/>
<path d="M62.8159 30.6613C62.1917 30.0717 61.8397 29.2241 61.7614 28.1186C61.8337 29.1414 62.1401 29.9439 62.6797 30.525C62.6187 33.3091 62.4685 35.8199 62.2173 38.0434C62.4257 37.4503 62.7259 36.9033 63.118 36.4022L63.2913 36.1909C64.2424 35.0814 65.5109 34.2286 67.096 33.6341C68.721 33.0396 70.5053 32.7428 72.4473 32.7428C73.5966 32.7428 74.6472 32.8417 75.5984 33.0399C76.5495 33.1984 77.2043 33.3963 77.561 33.6341C77.5608 32.7228 77.1831 31.9292 76.4303 31.2555C75.6772 30.5426 74.3689 30.186 72.5068 30.1859C71.6355 30.186 70.9421 30.2653 70.427 30.4236C69.9514 30.5425 69.5143 30.7009 69.118 30.899C68.7218 31.0971 68.2663 31.277 67.7513 31.4355C67.2757 31.5544 66.6209 31.6121 65.7887 31.6121C64.56 31.6121 63.569 31.2954 62.8159 30.6613Z" fill="white"/>
<path fill-rule="evenodd" clip-rule="evenodd" d="M188.206 31.2536L188.206 31.2664C188.441 32.2645 188.578 33.3116 188.61 34.408L188.611 34.8437C188.599 35.6896 188.514 36.5113 188.359 37.3093L188.36 37.3178C188.513 36.5312 188.597 35.7212 188.611 34.8879L188.611 34.8437C188.613 34.6992 188.613 34.554 188.61 34.408C188.578 33.307 188.443 32.2555 188.206 31.2536Z" fill="white"/>
<path d="M173.399 38.768C172.418 38.768 171.556 38.4108 170.813 37.6952L170.666 37.547C169.94 36.7837 169.553 35.9012 169.508 34.8993L169.503 34.6979C169.503 33.6802 169.844 32.7987 170.525 32.0536L170.666 31.9063C171.442 31.0923 172.353 30.6854 173.399 30.6854L173.594 30.6898C174.559 30.7374 175.405 31.1431 176.132 31.9063C176.908 32.6817 177.296 33.6124 177.296 34.6979L177.291 34.8993C177.246 35.9012 176.859 36.7837 176.132 37.547C175.357 38.3611 174.446 38.768 173.399 38.768Z" fill="white"/>
<defs>
<linearGradient id="paint0_linear_227_797" x1="121.437" y1="-95.1089" x2="184.938" y2="149.437" gradientUnits="userSpaceOnUse">
<stop stop-color="#F7FF00"/>
<stop offset="0.793269" stop-color="#DB36A4"/>
</linearGradient>
</defs>
</svg>
