<svg width="58" height="64" viewBox="0 0 58 64" fill="none" xmlns="http://www.w3.org/2000/svg">
<path d="M16.9474 57.2315C14.7816 57.2315 13.0249 56.5336 11.6773 55.1379C10.3297 53.694 9.29493 51.7929 8.57299 49.4346C7.85105 47.0281 7.36976 44.4051 7.12912 41.5655C6.88847 38.7259 6.76815 35.9103 6.76815 33.1188C6.76815 29.846 7.20131 26.6455 8.06764 23.5171C8.98209 20.3887 10.3538 17.5731 12.1827 15.0704C14.0597 12.5196 16.418 10.4982 19.2576 9.00615C22.0973 7.51415 25.4663 6.76815 29.3647 6.76815C33.3113 6.76815 36.8729 7.58634 40.0494 9.22273C43.2741 10.8591 45.849 13.1934 47.7741 16.2255C49.6993 19.2576 50.6619 22.8673 50.6619 27.0546C50.6619 30.8086 50.0843 34.0333 48.9292 36.7285C47.7741 39.4237 46.2099 41.6377 44.2366 43.3703C42.3115 45.0548 40.1457 46.3062 37.7392 47.1244C35.3809 47.9426 32.9744 48.3276 30.5198 48.2795C28.0653 48.1832 25.7791 47.7019 23.6615 46.8356C23.9021 47.9907 24.0224 49.1699 24.0224 50.3731C24.0706 51.5763 23.878 52.7073 23.4449 53.7662C23.0598 54.7769 22.3379 55.6192 21.2791 56.293C20.2684 56.9186 18.8245 57.2315 16.9474 57.2315ZM30.0867 37.0173C31.8193 37.0173 33.3113 36.3916 34.5627 35.1402C35.8622 33.8408 36.5119 32.3488 36.5119 30.6642C36.5119 28.9316 35.8622 27.4396 34.5627 26.1882C33.3113 24.8887 31.8193 24.239 30.0867 24.239C28.354 24.239 26.838 24.8887 25.5385 26.1882C24.2871 27.4396 23.6615 28.9316 23.6615 30.6642C23.6615 32.3488 24.2871 33.8408 25.5385 35.1402C26.838 36.3916 28.354 37.0173 30.0867 37.0173Z" fill="url(#paint0_linear_152_168)"/>
<path d="M50.6619 27.0546C50.6619 22.8673 49.6993 19.2576 47.7741 16.2255C45.849 13.1934 43.2741 10.8591 40.0494 9.22273C37.0713 7.68862 33.7547 6.87389 30.0998 6.77806L29.3647 6.76815C25.4663 6.76815 22.0973 7.51415 19.2576 9.00615L18.7314 9.29189C16.1254 10.7527 13.9425 12.6788 12.1827 15.0704C10.3538 17.5731 8.98209 20.3887 8.06764 23.5171L7.9105 24.1049C7.14914 27.0461 6.76815 30.0507 6.76815 33.1188L6.77366 34.1668C6.79998 36.6145 6.91857 39.0809 7.12912 41.5655C7.36976 44.4051 7.85105 47.0281 8.57299 49.4346C9.29493 51.7929 10.3297 53.694 11.6773 55.1379C12.9406 56.4463 14.5635 57.1412 16.5458 57.223L16.9474 57.2315C18.7069 57.2314 20.0862 56.9566 21.0844 56.4068L21.2791 56.293C22.3379 55.6192 23.0598 54.7769 23.4449 53.7662C23.878 52.7073 24.0706 51.5763 24.0224 50.3731C24.0224 49.1699 23.9021 47.9907 23.6615 46.8356C25.7791 47.7019 28.0653 48.1832 30.5198 48.2795C32.9744 48.3276 35.3809 47.9426 37.7392 47.1244C39.9952 46.3573 42.0399 45.2097 43.8729 43.6812L44.2366 43.3703C46.2099 41.6377 47.7741 39.4237 48.9292 36.7285C50.012 34.2018 50.5877 31.2095 50.6554 27.7523L50.6619 27.0546ZM57.4301 27.055C57.4301 31.4789 56.7518 35.657 55.1498 39.395C53.6441 42.9083 51.5179 45.9843 48.7023 48.4566L48.6934 48.4643C46.1067 50.7277 43.1681 52.4278 39.9182 53.5327L39.9171 53.5316C36.8287 54.598 33.6408 55.1101 30.3873 55.0463L30.3212 55.0452L30.2551 55.0419C30.2255 55.0407 30.1955 55.0387 30.1659 55.0375C30.0343 55.4717 29.883 55.9025 29.7087 56.3285L29.7065 56.3274C28.7111 58.8326 26.954 60.7036 24.9124 62.0028L24.8771 62.026L24.8419 62.048C22.3097 63.6155 19.4184 64 16.9479 64C13.1809 64 9.58531 62.716 6.80781 59.8393L6.76815 59.7974L6.72959 59.7556C4.52792 57.3966 3.05172 54.5184 2.10183 51.4155L2.09522 51.3978L2.09081 51.3791C1.21814 48.4702 0.660489 45.381 0.385555 42.1368C0.129156 39.1112 1.1376e-05 36.1052 0 33.1192C0 29.2413 0.513941 25.4325 1.54442 21.7112L1.57086 21.6186C2.69387 17.7768 4.40361 14.2454 6.71858 11.0776L6.72519 11.0676L6.7318 11.0588C9.22462 7.67126 12.3744 4.97763 16.1096 3.01504C20.1078 0.914288 24.6034 0 29.365 0C34.2752 3.53623e-05 38.9173 1.02555 43.1492 3.20562L43.1481 3.20672C47.432 5.38849 50.9136 8.54378 53.4876 12.5977C56.2092 16.8843 57.4301 21.8 57.4301 27.055Z" fill="url(#paint1_linear_152_168)"/>
<path d="M50.6619 27.0546C50.6618 23.1291 49.8156 19.7107 48.1235 16.8004L47.7741 16.2255C45.849 13.1934 43.2741 10.8591 40.0494 9.22273C37.0713 7.68862 33.7547 6.87389 30.0998 6.77806L29.3647 6.76815C25.4663 6.76815 22.0973 7.51415 19.2576 9.00615C16.418 10.4982 14.0597 12.5196 12.1827 15.0704L11.8449 15.5435C10.184 17.9264 8.92491 20.5844 8.06764 23.5171C7.20131 26.6455 6.76815 29.846 6.76815 33.1188L6.77366 34.1668C6.79998 36.6145 6.91857 39.0809 7.12912 41.5655C7.36976 44.4051 7.85105 47.0281 8.57299 49.4346C9.29493 51.7929 10.3297 53.694 11.6773 55.1379C12.9406 56.4463 14.5635 57.1412 16.5458 57.223L16.9474 57.2315C18.7069 57.2314 20.0862 56.9566 21.0844 56.4068L21.2791 56.293C22.3379 55.6192 23.0598 54.7769 23.4449 53.7662C23.878 52.7073 24.0706 51.5763 24.0224 50.3731C24.0224 49.1699 23.9021 47.9907 23.6615 46.8356C25.7791 47.7019 28.0653 48.1832 30.5198 48.2795C32.9744 48.3276 35.3809 47.9426 37.7392 47.1244C39.9952 46.3573 42.0399 45.2097 43.8729 43.6812L44.2366 43.3703C46.2099 41.6377 47.7741 39.4237 48.9292 36.7285C50.0843 34.0333 50.6619 30.8086 50.6619 27.0546ZM54.0456 27.054C54.0456 31.1429 53.4181 34.8445 52.0396 38.0611C50.7092 41.1654 48.8634 43.8107 46.4689 45.9132C44.2179 47.8828 41.6677 49.3589 38.847 50.3206C36.1177 51.2675 33.3149 51.7184 30.454 51.6624H30.4199L30.3868 51.6613C29.3702 51.6214 28.3723 51.5218 27.3938 51.3649C27.3284 52.6034 27.0703 53.8102 26.6062 54.9693C26.6016 54.9815 26.5966 54.9947 26.5919 55.0068C26.5865 55.0202 26.5819 55.0342 26.5764 55.0475C25.8858 56.8068 24.644 58.1622 23.0954 59.1477L23.0778 59.1598L23.0602 59.1708C21.2887 60.2673 19.1211 60.6161 16.9475 60.6161C13.9811 60.6161 11.3055 59.6247 9.24298 57.4887L9.20332 57.4468C7.42869 55.5454 6.17266 53.1559 5.33675 50.4253L5.33124 50.4066C4.53405 47.7491 4.01486 44.8932 3.75707 41.8516C3.50856 38.9191 3.38365 36.008 3.38363 33.1194C3.38363 29.5439 3.85733 26.0385 4.80578 22.6135L4.819 22.5673C5.83772 19.0823 7.37822 15.909 9.45007 13.0738C11.635 10.1045 14.3959 7.73772 17.6833 6.0104C21.1022 4.21405 25.0346 3.38424 29.3646 3.38422C33.7929 3.38422 37.8946 4.30608 41.5988 6.21419C45.3534 8.12316 48.3809 10.8679 50.6307 14.4111C52.954 18.0703 54.0455 22.3331 54.0456 27.054Z" fill="white"/>
<path fill-rule="evenodd" clip-rule="evenodd" d="M29.7644 37.0102L30.0867 37.0173C31.7107 37.0172 33.1238 36.4673 34.325 35.3677L34.5627 35.1402C35.8622 33.8408 36.5119 32.3488 36.5119 30.6642C36.5119 28.9316 35.8622 27.4396 34.5627 26.1882C33.3896 24.97 32.005 24.3222 30.4089 24.2461L30.0867 24.239C28.354 24.239 26.838 24.8887 25.5385 26.1882L25.3107 26.4261C24.2113 27.6273 23.6615 29.0402 23.6615 30.6642L23.6683 30.9779C23.7416 32.5345 24.3653 33.922 25.5385 35.1402C26.7567 36.3132 28.1656 36.9369 29.7644 37.0102Z" fill="white"/>
<defs>
<linearGradient id="paint0_linear_152_168" x1="37.5799" y1="-55.5479" x2="75.8214" y2="123.779" gradientUnits="userSpaceOnUse">
<stop stop-color="#F7FF00"/>
<stop offset="0.69845" stop-color="#DB36A4"/>
</linearGradient>
<linearGradient id="paint1_linear_152_168" x1="35.4904" y1="-37.0308" x2="66.5111" y2="103.972" gradientUnits="userSpaceOnUse">
<stop stop-color="#F7FF00"/>
<stop offset="0.69845" stop-color="#DB36A4"/>
</linearGradient>
</defs>
</svg>
